<?xml version='1.0' encoding='utf-8'?><!DOCTYPE svg PUBLIC "-//W3C//DTD SVG 1.1//EN" "http://www.w3.org/Graphics/SVG/1.1/DTD/svg11.dtd"><svg viewBox="0 0 438.536 438.536" xmlns="http://www.w3.org/2000/svg" xmlns:xlink="http://www.w3.org/1999/xlink"><style>:root>svg{display:none}:root>svg:target{display:block}</style><svg viewBox="0 0 129 129" id="arrow" xmlns="http://www.w3.org/2000/svg"><path d="M40.4 121.3c-.8.8-1.8 1.2-2.9 1.2s-2.1-.4-2.9-1.2c-1.6-1.6-1.6-4.2 0-5.8l51-51-51-51c-1.6-1.6-1.6-4.2 0-5.8 1.6-1.6 4.2-1.6 5.8 0l53.9 53.9c1.6 1.6 1.6 4.2 0 5.8l-53.9 53.9z"/></svg><svg fill="none" viewBox="0 0 21 25" id="building" xmlns="http://www.w3.org/2000/svg"><path d="M16.479 25V4.994H0V25h3.838v-1.187c0-1.492 1.17-2.709 2.588-2.709h3.626c1.42 0 2.598 1.217 2.598 2.71V25h3.829zM4.55 17.848c0 .106-.02.216-.058.314a.816.816 0 01-.163.264.76.76 0 01-.549.233H1.962a.756.756 0 01-.711-.497.873.873 0 01-.058-.314V15.95a.87.87 0 01.058-.315.817.817 0 01.163-.264.762.762 0 01.548-.233H3.78a.751.751 0 01.549.233.813.813 0 01.163.264.874.874 0 01.058.315v1.897zm0-5.61c0 .106-.02.216-.058.314a.754.754 0 01-.712.497H1.962a.751.751 0 01-.548-.233.805.805 0 01-.163-.264.874.874 0 01-.058-.315V10.33c0-.106.019-.206.058-.304a.816.816 0 01.413-.447.757.757 0 01.298-.061H3.78c.101 0 .205.02.299.06a.793.793 0 01.413.448.82.82 0 01.058.304v1.907zm2.01-2a.87.87 0 01.222-.578.763.763 0 01.549-.233h1.625a.757.757 0 01.712.497.874.874 0 01.058.315v1.704c0 .106-.019.206-.058.304a.817.817 0 01-.413.447.756.756 0 01-.299.06H7.331a.75.75 0 01-.299-.06.798.798 0 01-.413-.447.82.82 0 01-.058-.304V10.24zm3.214 7.366c0 .107-.02.207-.058.305a.812.812 0 01-.414.446.756.756 0 01-.298.06H7.33c-.1 0-.205-.02-.298-.06a.812.812 0 01-.414-.446.82.82 0 01-.058-.305V15.85a.87.87 0 01.058-.314.812.812 0 01.163-.264.763.763 0 01.549-.233h1.674a.751.751 0 01.548.233.807.807 0 01.164.264.877.877 0 01.058.314v1.755zm2.154-7.274c0-.106.02-.206.058-.304a.817.817 0 01.414-.447.757.757 0 01.298-.061h1.818c.1 0 .205.02.298.06a.794.794 0 01.414.448.82.82 0 01.058.304v1.907c0 .107-.02.217-.058.315a.754.754 0 01-.712.497h-1.818a.752.752 0 01-.548-.233.805.805 0 01-.164-.264.874.874 0 01-.058-.315V10.33zm.472 8.268a.762.762 0 01-.414-.436.873.873 0 01-.057-.314V15.95a.87.87 0 01.057-.315.816.816 0 01.164-.264.762.762 0 01.548-.233h1.818a.751.751 0 01.549.233.814.814 0 01.163.264.873.873 0 01.058.315v1.897c0 .106-.02.216-.058.314a.817.817 0 01-.163.264.76.76 0 01-.549.233h-1.818c-.1 0-.205-.02-.298-.06zM19.953 0H4.08L1.03 3.37h15.86L19.953 0zM18.017 23.785L21 20.49V1.194l-2.983 3.282v19.309z" fill="#fff"/><path d="M6.424 22.724c-.583 0-1.05.492-1.05 1.09v1.183h5.732v-1.182c0-.599-.464-1.091-1.052-1.091h-3.63z" fill="#fff"/></svg><svg viewBox="0 0 15 15" id="cross" xmlns="http://www.w3.org/2000/svg"><path d="M2.64 1.27L7.5 6.13l4.84-4.84A.92.92 0 0113 1a1 1 0 011 1 .9.9 0 01-.27.66L8.84 7.5l4.89 4.89A.9.9 0 0114 13a1 1 0 01-1 1 .92.92 0 01-.69-.27L7.5 8.87l-4.85 4.85A.92.92 0 012 14a1 1 0 01-1-1 .9.9 0 01.27-.66L6.16 7.5 1.27 2.61A.9.9 0 011 2a1 1 0 011-1c.24.003.47.1.64.27z"/></svg><svg viewBox="0 0 10 20" id="facebook" xmlns="http://www.w3.org/2000/svg"><path d="M6.821 20v-9h2.733L10 7H6.821V5.052C6.821 4.022 6.848 3 8.287 3h1.458V.14c0-.043-1.253-.14-2.52-.14C4.58 0 2.924 1.657 2.924 4.7V7H0v4h2.923v9h3.898z" fill="#000" fill-rule="evenodd"/></svg><svg fill="none" viewBox="0 0 25 25" id="hand" xmlns="http://www.w3.org/2000/svg"><path d="M6.937 23.492L5.42 25 0 19.758l3.882-3.827a5.923 5.923 0 012.863-1.571 5.95 5.95 0 013.265.18l.853.297h5.234a1.662 1.662 0 011.187.498 1.637 1.637 0 01.465 1.193 1.681 1.681 0 01-.539 1.138c-.32.296-.744.458-1.182.451h-3.14a.636.636 0 100 1.276h3.15a3.005 3.005 0 002.068-.81c.56-.523.894-1.24.936-2.001v-.041l2.913-3.258a1.767 1.767 0 012.423-.234 1.706 1.706 0 01.616 1.175 1.69 1.69 0 01-.418 1.258l-5.817 6.633a4.105 4.105 0 01-3.083 1.388l-8.739-.01zM18.95 9.072c0-.322-.128-.63-.357-.857a1.225 1.225 0 00-.863-.355H15.93V6.074a1.208 1.208 0 00-.376-.82 1.225 1.225 0 00-1.686 0c-.227.215-.362.509-.376.82V7.86h-1.799a1.229 1.229 0 00-.899.334 1.212 1.212 0 00-.279 1.353 1.212 1.212 0 00.694.658c.155.057.32.083.484.076h1.799v1.785c.014.312.149.606.376.821a1.225 1.225 0 001.686 0c.227-.215.362-.51.376-.82V10.28h1.799c.323 0 .633-.128.862-.354.229-.227.357-.535.358-.856zM7.25 2.356v1.316H5.924a.903.903 0 00-.636.262.89.89 0 000 1.263.903.903 0 00.636.261h1.326v1.317a.89.89 0 00.263.63.903.903 0 001.272 0 .89.89 0 00.263-.63V5.454h1.319a.903.903 0 00.635-.261.89.89 0 00-.636-1.525H9.043v-1.31a.89.89 0 00-.264-.632.903.903 0 00-1.272 0 .89.89 0 00-.263.631h.005zM18.591 0c-.204 0-.4.08-.545.224a.763.763 0 00-.226.541v1.133h-1.14c-.205 0-.401.08-.546.224a.763.763 0 00.545 1.307h1.141V4.56c0 .203.081.398.226.541a.774.774 0 001.316-.54V3.428h1.14a.776.776 0 00.713-.473.76.76 0 00-.417-1 .776.776 0 00-.295-.058h-1.141V.765a.762.762 0 00-.226-.54.773.773 0 00-.545-.225z" fill="#fff"/></svg><svg fill="none" viewBox="0 0 22 21" id="home" xmlns="http://www.w3.org/2000/svg"><path d="M20.904 6.227L18.67 4.875V.284a.262.262 0 00-.263-.263h-3.314a.262.262 0 00-.263.263v2.27L10.667.038a.24.24 0 00-.085-.03.263.263 0 00-.196.03L.157 6.228a.262.262 0 00-.126.224v2.165a.262.262 0 00.395.227l1.54-.9v10.578h-.733a.262.262 0 00-.262.263v1.953c0 .145.117.262.262.262h18.595a.263.263 0 00.263-.262v-1.953a.263.263 0 00-.263-.263h-.733V7.944l1.54.9a.262.262 0 00.396-.227V6.452a.262.262 0 00-.127-.225zm-5.55-5.68h2.79v4.01l-2.79-1.685V.546zm4.212 19.928H1.496v-1.428h18.07v1.428zm-6.673-1.953H8.168v-8.199h4.725v8.199zm5.677 0h-5.152v-8.461a.262.262 0 00-.262-.263h-5.25a.262.262 0 00-.263.263v8.461H2.491V7.636l8.036-4.698 8.043 4.7v10.884zM20.506 8.16l-9.847-5.753a.263.263 0 00-.265 0L.556 8.16V6.6l9.97-6.033 9.98 6.032V8.16z" fill="#31353B"/></svg><svg viewBox="0 0 438.536 438.536" id="instagram" xmlns="http://www.w3.org/2000/svg"><path d="M421.981 16.562C410.941 5.519 397.711 0 382.298 0H56.248C40.83 0 27.604 5.521 16.561 16.562 5.52 27.6.001 40.828.001 56.243V382.29c0 15.413 5.518 28.644 16.56 39.683 11.043 11.04 24.272 16.563 39.687 16.563h326.046c15.41 0 28.644-5.523 39.684-16.563 11.043-11.039 16.557-24.27 16.557-39.683V56.243c-.001-15.418-5.514-28.639-16.554-39.681zM157.462 158.025c17.224-16.652 37.924-24.982 62.097-24.982 24.36 0 45.153 8.33 62.381 24.982 17.228 16.655 25.837 36.785 25.837 60.386 0 23.598-8.609 43.729-25.837 60.379-17.228 16.659-38.014 24.988-62.381 24.988-24.172 0-44.87-8.336-62.097-24.988-17.228-16.652-25.841-36.781-25.841-60.379 0-23.601 8.613-43.73 25.841-60.386zm231.403 212.564c0 4.945-1.718 9.083-5.141 12.416-3.433 3.33-7.519 4.996-12.282 4.996h-305.2c-4.948 0-9.091-1.666-12.419-4.996-3.333-3.326-4.998-7.471-4.998-12.416V185.575H89.08c-3.805 11.993-5.708 24.462-5.708 37.402 0 36.553 13.322 67.715 39.969 93.511 26.65 25.786 58.721 38.685 96.217 38.685 24.744 0 47.583-5.903 68.527-17.703 20.937-11.807 37.486-27.839 49.676-48.112 12.183-20.272 18.274-42.4 18.274-66.38 0-12.94-1.91-25.406-5.715-37.402h38.547V370.59h-.002zm0-254.963c0 5.52-1.903 10.184-5.716 13.99-3.805 3.809-8.466 5.711-13.989 5.711h-49.676c-5.517 0-10.185-1.903-13.99-5.711-3.806-3.806-5.708-8.47-5.708-13.99V68.522c0-5.33 1.902-9.945 5.708-13.848 3.806-3.901 8.474-5.854 13.99-5.854h49.676c5.523 0 10.185 1.952 13.989 5.854 3.812 3.903 5.716 8.518 5.716 13.848v47.104z"/></svg><svg viewBox="0 0 72 72" id="linkedin" xmlns="http://www.w3.org/2000/svg"><g fill="none" fill-rule="evenodd"><path d="M8 72h56a8 8 0 008-8V8a8 8 0 00-8-8H8a8 8 0 00-8 8v56a8 8 0 008 8z" fill="#000"/><path d="M62 62H51.316V43.802c0-4.99-1.896-7.777-5.845-7.777-4.296 0-6.54 2.901-6.54 7.777V62H28.632V27.333H38.93v4.67s3.096-5.729 10.453-5.729c7.353 0 12.617 4.49 12.617 13.777V62zM16.35 22.794c-3.508 0-6.35-2.864-6.35-6.397C10 12.864 12.842 10 16.35 10c3.507 0 6.347 2.864 6.347 6.397 0 3.533-2.84 6.397-6.348 6.397zM11.032 62h10.736V27.333H11.033V62z" fill="#FFF"/></g></svg><svg fill="none" viewBox="0 0 27 27" id="search" xmlns="http://www.w3.org/2000/svg"><path d="M25.293 26.707a1 1 0 001.414-1.414l-1.414 1.414zm1.414-1.414l-7.328-7.328-1.414 1.415 7.328 7.327 1.414-1.414zM20.69 11.345a9.345 9.345 0 01-9.345 9.345v2c6.265 0 11.345-5.08 11.345-11.345h-2zm-9.345 9.345A9.345 9.345 0 012 11.345H0C0 17.61 5.08 22.69 11.345 22.69v-2zM2 11.345A9.345 9.345 0 0111.345 2V0C5.079 0 0 5.08 0 11.345h2zM11.345 2a9.345 9.345 0 019.345 9.345h2C22.69 5.079 17.61 0 11.345 0v2z" fill="#fff"/></svg><svg fill="none" viewBox="0 0 17 15" id="star" xmlns="http://www.w3.org/2000/svg"><path d="M8.491.682a.25.25 0 01.472 0l1.665 4.803c.035.101.13.168.237.168h5.351a.25.25 0 01.141.457l-4.301 2.93a.25.25 0 00-.096.288l1.65 4.76a.25.25 0 01-.377.288l-4.365-2.973a.25.25 0 00-.281 0l-4.365 2.973a.25.25 0 01-.377-.289l1.65-4.759a.25.25 0 00-.096-.288L1.098 6.11a.25.25 0 01.14-.457H6.59a.25.25 0 00.236-.168L8.491.682z" fill="#FBB040"/></svg><svg viewBox="0 0 20 16" id="twitter" xmlns="http://www.w3.org/2000/svg"><path d="M6.29 16c7.547 0 11.675-6.156 11.675-11.495 0-.175 0-.349-.012-.522A8.265 8.265 0 0020 1.89a8.273 8.273 0 01-2.356.637A4.07 4.07 0 0019.448.293a8.303 8.303 0 01-2.606.98 4.153 4.153 0 00-5.806-.175 4.006 4.006 0 00-1.187 3.86A11.717 11.717 0 011.392.738 4.005 4.005 0 002.663 6.13 4.122 4.122 0 01.8 5.625v.051C.801 7.6 2.178 9.255 4.092 9.636a4.144 4.144 0 01-1.852.069c.537 1.646 2.078 2.773 3.833 2.806A8.315 8.315 0 010 14.185a11.754 11.754 0 006.29 1.812" fill="#000" fill-rule="evenodd"/></svg></svg>